<svg width="534" height="508" viewBox="0 0 534 508" fill="none" xmlns="http://www.w3.org/2000/svg">
<path d="M497.068 508L497.736 506.706C488.776 501.633 477.625 495.319 471.801 484.958C466.059 474.744 465.93 460.874 471.464 448.761C476.174 438.452 484.826 429.216 496.483 422.051C498.783 420.638 501.197 419.298 503.531 418.003C509.174 414.872 515.008 411.634 519.819 407.041C526.446 400.715 531.459 390.098 527.723 380.641C526.494 377.623 524.481 375.026 521.913 373.145C519.345 371.264 516.325 370.174 513.195 370L513.116 371.469C515.983 371.628 518.75 372.626 521.103 374.348C523.456 376.07 525.301 378.449 526.428 381.213C529.901 390.001 525.136 399.974 518.873 405.954C514.193 410.422 508.438 413.615 502.873 416.703C500.525 418.006 498.098 419.353 495.772 420.782C483.871 428.096 475.028 437.551 470.197 448.126C464.464 460.675 464.614 475.074 470.59 485.704C476.612 496.418 487.954 502.84 497.068 508Z" fill="#F1F1F1"/>
<path d="M504.5 377C497.596 377 492 374.314 492 371C492 367.686 497.596 365 504.5 365C511.404 365 517 367.686 517 371C517 374.314 511.404 377 504.5 377Z" fill="#F1F1F1"/>
<path d="M494.5 419C487.596 419 482 416.09 482 412.5C482 408.91 487.596 406 494.5 406C501.404 406 507 408.91 507 412.5C507 416.09 501.404 419 494.5 419Z" fill="#F1F1F1"/>
<path d="M517 425C510.373 425 505 422.314 505 419C505 415.686 510.373 413 517 413C523.627 413 529 415.686 529 419C529 422.314 523.627 425 517 425Z" fill="#F1F1F1"/>
<path d="M482 460C475.373 460 470 457.09 470 453.5C470 449.91 475.373 447 482 447C488.627 447 494 449.91 494 453.5C494 457.09 488.627 460 482 460Z" fill="#F1F1F1"/>
<path d="M457.5 460C450.596 460 445 457.09 445 453.5C445 449.91 450.596 447 457.5 447C464.404 447 470 449.91 470 453.5C470 457.09 464.404 460 457.5 460Z" fill="#F1F1F1"/>
<path d="M17.1582 327.188H209.086C213.635 327.182 217.996 325.289 221.213 321.923C224.429 318.556 226.239 313.992 226.244 309.232V17.9557C226.239 13.1952 224.429 8.63124 221.213 5.26505C217.996 1.89886 213.635 0.00537323 209.086 0H17.1582C12.6091 0.00537509 8.24786 1.89886 5.0312 5.26505C1.81454 8.63124 0.00515747 13.1952 1.52588e-05 17.9557V309.232C0.00515747 313.992 1.81454 318.556 5.0312 321.923C8.24786 325.289 12.6091 327.182 17.1582 327.188Z" fill="#E6E6E6"/>
<path d="M16.8203 315.731H209.423C210.826 315.73 212.17 315.146 213.162 314.108C214.153 313.071 214.711 311.664 214.713 310.196V16.9911C214.711 15.5236 214.153 14.1167 213.162 13.0791C212.17 12.0414 210.826 11.4577 209.423 11.4561H16.8203C15.418 11.4577 14.0736 12.0414 13.082 13.0791C12.0904 14.1167 11.5327 15.5236 11.5311 16.9911V310.196C11.5327 311.664 12.0904 313.071 13.082 314.108C14.0736 315.146 15.418 315.73 16.8203 315.731Z" fill="white"/>
<path d="M113.852 7.02641C113.046 7.02641 112.392 6.34253 112.392 5.49892C112.392 4.65531 113.046 3.97144 113.852 3.97144C114.658 3.97144 115.311 4.65531 115.311 5.49892C115.311 6.34253 114.658 7.02641 113.852 7.02641Z" fill="white"/>
<path d="M35.4901 204.527H190.754C190.883 204.527 191.006 204.474 191.097 204.378C191.189 204.283 191.24 204.154 191.24 204.019V126.142C191.24 126.007 191.189 125.878 191.097 125.782C191.006 125.687 190.883 125.633 190.754 125.633C190.625 125.633 190.501 125.687 190.41 125.782C190.319 125.878 190.268 126.007 190.268 126.142V203.51H35.4901C35.3616 203.511 35.2385 203.565 35.1477 203.66C35.057 203.755 35.006 203.884 35.006 204.019C35.006 204.153 35.057 204.282 35.1477 204.378C35.2385 204.473 35.3616 204.527 35.4901 204.527Z" fill="#3F3D56"/>
<path d="M157.581 198.934H171.702C172.085 198.934 172.451 198.774 172.722 198.491C172.992 198.209 173.144 197.825 173.145 197.425V177.053C173.144 176.653 172.992 176.269 172.722 175.986C172.451 175.703 172.085 175.544 171.702 175.543H157.581C157.198 175.544 156.832 175.703 156.561 175.986C156.291 176.269 156.139 176.653 156.138 177.053V197.425C156.139 197.825 156.291 198.209 156.561 198.491C156.832 198.774 157.198 198.934 157.581 198.934Z" fill="#021966"/>
<path d="M131.828 198.934H145.949C146.332 198.934 146.698 198.774 146.969 198.491C147.239 198.208 147.391 197.825 147.392 197.425V157.73C147.391 157.33 147.239 156.946 146.969 156.663C146.698 156.38 146.332 156.221 145.949 156.221H131.828C131.445 156.221 131.079 156.38 130.808 156.663C130.538 156.946 130.386 157.33 130.385 157.73V197.425C130.386 197.825 130.538 198.208 130.808 198.491C131.079 198.774 131.445 198.934 131.828 198.934Z" fill="#021966"/>
<path d="M106.075 198.934H120.197C120.579 198.934 120.946 198.774 121.216 198.491C121.486 198.209 121.638 197.825 121.639 197.425V177.053C121.638 176.653 121.486 176.269 121.216 175.986C120.946 175.703 120.579 175.544 120.197 175.543H106.075C105.692 175.544 105.326 175.703 105.055 175.986C104.785 176.269 104.633 176.653 104.632 177.053V197.425C104.633 197.825 104.785 198.209 105.055 198.491C105.326 198.774 105.692 198.934 106.075 198.934Z" fill="#021966"/>
<path d="M80.3217 198.934H94.4436C94.8173 198.942 95.1789 198.795 95.4493 198.525C95.7197 198.255 95.8767 197.884 95.886 197.493V150.034C95.8767 149.643 95.7197 149.272 95.4493 149.002C95.1789 148.732 94.8173 148.585 94.4436 148.593H80.3217C79.948 148.585 79.5864 148.732 79.3161 149.002C79.0457 149.272 78.8886 149.643 78.8793 150.034V197.493C78.8886 197.884 79.0457 198.255 79.3161 198.525C79.5864 198.795 79.948 198.942 80.3217 198.934Z" fill="#021966"/>
<path d="M54.5689 198.934H68.6907C69.0731 198.934 69.4397 198.775 69.7101 198.492C69.9805 198.209 70.1326 197.825 70.1331 197.425V136.374C70.1326 135.973 69.9805 135.59 69.7101 135.307C69.4397 135.024 69.0731 134.865 68.6907 134.864H54.5689C54.1865 134.865 53.8199 135.024 53.5495 135.307C53.279 135.59 53.1269 135.973 53.1265 136.374V197.425C53.1269 197.825 53.279 198.209 53.5495 198.492C53.8199 198.775 54.1865 198.934 54.5689 198.934Z" fill="#021966"/>
<path d="M164.641 169.441C163.031 169.441 161.726 168.076 161.726 166.391C161.726 164.706 163.031 163.34 164.641 163.34C166.252 163.34 167.557 164.706 167.557 166.391C167.557 168.076 166.252 169.441 164.641 169.441Z" fill="#3F3D56"/>
<path d="M138.888 149.61C137.278 149.61 135.973 148.244 135.973 146.559C135.973 144.875 137.278 143.509 138.888 143.509C140.499 143.509 141.804 144.875 141.804 146.559C141.804 148.244 140.499 149.61 138.888 149.61Z" fill="#3F3D56"/>
<path d="M113.136 169.441C111.525 169.441 110.22 168.076 110.22 166.391C110.22 164.706 111.525 163.34 113.136 163.34C114.746 163.34 116.051 164.706 116.051 166.391C116.051 168.076 114.746 169.441 113.136 169.441Z" fill="#3F3D56"/>
<path d="M87.3826 139.949C85.7724 139.949 84.4672 138.583 84.4672 136.898C84.4672 135.213 85.7724 133.847 87.3826 133.847C88.9928 133.847 90.2981 135.213 90.2981 136.898C90.2981 138.583 88.9928 139.949 87.3826 139.949Z" fill="#3F3D56"/>
<path d="M61.6298 128.762C60.0196 128.762 58.7144 127.396 58.7144 125.711C58.7144 124.026 60.0196 122.66 61.6298 122.66C63.2399 122.66 64.5452 124.026 64.5452 125.711C64.5452 127.396 63.2399 128.762 61.6298 128.762Z" fill="#3F3D56"/>
<path d="M113.074 167.074L138.889 146.84L164.35 166.797L164.933 165.984L138.889 145.569L113.197 165.707L87.6673 136.47L87.5642 136.426L61.8113 125.567L61.4481 126.511L87.0986 137.326L113.074 167.074Z" fill="#3F3D56"/>
<path d="M340.978 267.86C341.998 267.859 343.006 268.09 343.931 268.535C344.855 268.98 345.673 269.629 346.327 270.435L377.595 269.429L378.819 264L395 272.132L392.907 287L345.254 280.716C344.378 281.418 343.351 281.894 342.259 282.104C341.168 282.315 340.044 282.254 338.98 281.927C337.916 281.6 336.943 281.016 336.142 280.223C335.342 279.431 334.736 278.453 334.376 277.372C334.017 276.29 333.913 275.135 334.073 274.004C334.234 272.872 334.655 271.797 335.301 270.866C335.946 269.936 336.798 269.178 337.786 268.655C338.773 268.132 339.868 267.86 340.978 267.86H340.978Z" fill="#9F616A"/>
<path d="M398.999 498H390.191L386 463L399 463.001L398.999 498Z" fill="#9F616A"/>
<path d="M401 495.001L383.899 495H383.898C381.008 495 378.236 496.225 376.192 498.404C374.148 500.583 373 503.539 373 506.621V506.999L401 507L401 495.001Z" fill="#2F2E41"/>
<path d="M432 491.491L423.507 494L410 461.703L422.534 458L432 491.491Z" fill="#9F616A"/>
<path d="M432.925 488L416.751 492.854L416.75 492.854C414.017 493.675 411.709 495.589 410.335 498.177C408.96 500.765 408.632 503.813 409.422 506.652L409.518 507L436 499.053L432.925 488Z" fill="#2F2E41"/>
<path d="M410.029 347C410.029 347 413.135 355.951 408.236 368.164L404.455 418.464L403.336 490H387.419L377.785 417.073L372 350.948L410.029 347Z" fill="#2F2E41"/>
<path d="M418.823 347C418.823 347 421.912 355.977 417.039 368.226L413.279 418.671L432 487H416.168L386.754 417.277L381 350.959L418.823 347Z" fill="#2F2E41"/>
<path d="M372.5 231C362.835 231 355 222.941 355 213C355 203.059 362.835 195 372.5 195C382.165 195 390 203.059 390 213C390 222.941 382.165 231 372.5 231Z" fill="#9F616A"/>
<path d="M370.25 257.475L373.753 240.538L391.589 230L395.206 235.269C395.206 235.269 420.728 242.248 417.641 272.744C414.555 303.24 415.962 317.887 415.962 317.887L423 351.574C423 351.574 420.834 351.961 371.111 361L369 287.767L370.25 257.475Z" fill="#CBCBCB"/>
<path opacity="0.1" d="M387 423L404 457.197V467L387 423Z" fill="black"/>
<path d="M391.326 219.156C389.671 223.778 383.405 224.419 381.195 220.055C381.024 219.717 380.884 219.361 380.777 218.995C380.172 216.899 380.553 214.59 379.435 212.586C379.162 212.084 378.772 211.664 378.3 211.364C374.584 209.079 370.926 216.33 367.47 214.301C365.351 213.057 365.804 209.445 363.918 207.844C361.43 205.731 357.835 208.878 354.643 208.519C351.093 208.119 349.413 203.43 350.185 199.795C351.126 195.362 354.453 191.764 358.357 189.751C362.26 187.738 366.696 187.13 371.05 187.017C375.997 186.889 381.173 187.436 385.356 190.193C390.443 193.545 393.309 199.785 393.943 206.024C394.329 209.819 392.678 215.381 391.326 219.156Z" fill="#2F2E41"/>
<path d="M305.835 343C305.81 343 305.784 343 305.759 342.998C292.697 342.286 280.386 336.417 271.329 326.584C262.272 316.751 257.15 303.692 257.003 290.064C256.857 276.435 261.697 263.261 270.54 253.218C279.383 243.176 291.564 237.021 304.607 236.004C304.769 235.991 304.931 236.012 305.084 236.067C305.237 236.123 305.377 236.21 305.496 236.325C305.614 236.437 305.709 236.574 305.774 236.726C305.84 236.879 305.874 237.044 305.875 237.211L307 341.762C307.003 342.087 306.882 342.4 306.663 342.632C306.445 342.864 306.147 342.996 305.835 343Z" fill="#3F3D56"/>
<path d="M345.974 253C345.574 253.005 345.192 253.175 344.912 253.473L310.429 290.289C310.291 290.437 310.181 290.611 310.108 290.803C310.034 290.994 309.997 291.199 310 291.406L310.538 341.444C310.539 341.658 310.583 341.871 310.667 342.067C310.751 342.263 310.873 342.439 311.025 342.583C311.177 342.729 311.357 342.842 311.552 342.913C311.748 342.984 311.956 343.012 312.162 342.996C321.75 342.246 330.947 338.721 338.722 332.815C346.496 326.909 352.538 318.857 356.17 309.563C359.802 300.27 360.879 290.103 359.281 280.205C357.683 270.307 353.472 261.071 347.123 253.534C346.985 253.372 346.817 253.241 346.629 253.149C346.441 253.057 346.237 253.006 346.03 253C346.011 253 345.992 253 345.974 253Z" fill="#E6E6E6"/>
<path d="M311.469 236C311.091 236.005 310.728 236.161 310.455 236.438C310.309 236.585 310.193 236.763 310.114 236.96C310.036 237.157 309.997 237.369 310 237.582L310.476 282.455C310.48 282.764 310.57 283.065 310.735 283.32C310.9 283.575 311.133 283.773 311.405 283.888C311.677 284.003 311.974 284.03 312.261 283.966C312.547 283.903 312.809 283.751 313.013 283.53L342.578 251.599C342.714 251.452 342.821 251.278 342.894 251.087C342.966 250.896 343.002 250.692 343 250.486C342.998 250.281 342.957 250.078 342.88 249.889C342.804 249.7 342.693 249.528 342.553 249.385C342.535 249.366 342.517 249.349 342.498 249.331C333.9 241.338 323 236.642 311.561 236.002C311.53 236 311.5 236 311.469 236Z" fill="#021966"/>
<path d="M358.092 288.86C359.129 288.859 360.154 289.09 361.094 289.535C362.033 289.98 362.865 290.629 363.529 291.435L395.309 290.429L396.553 285L413 293.132L410.872 308L362.439 301.716C361.548 302.418 360.504 302.894 359.395 303.104C358.286 303.315 357.143 303.254 356.061 302.927C354.98 302.6 353.991 302.016 353.177 301.223C352.364 300.431 351.748 299.453 351.383 298.372C351.017 297.29 350.911 296.135 351.075 295.004C351.238 293.872 351.666 292.797 352.322 291.866C352.978 290.936 353.844 290.178 354.848 289.655C355.851 289.132 356.964 288.86 358.092 288.86H358.092Z" fill="#9F616A"/>
<path d="M415.12 299L415.998 253.337C416.028 251.739 415.758 250.15 415.201 248.663C414.644 247.176 413.813 245.82 412.754 244.672C411.696 243.525 410.432 242.61 409.035 241.98C407.638 241.35 406.136 241.017 404.616 241.001C403.096 240.984 401.588 241.285 400.18 241.886C398.771 242.486 397.49 243.374 396.409 244.499C395.329 245.623 394.472 246.961 393.887 248.437C393.301 249.912 393 251.494 393 253.092V286.464L415.12 299Z" fill="#CBCBCB"/>
<path d="M264.705 508H533.295C533.482 508 533.661 507.895 533.794 507.707C533.926 507.52 534 507.265 534 507C534 506.735 533.926 506.48 533.794 506.293C533.661 506.105 533.482 506 533.295 506H264.705C264.518 506 264.339 506.105 264.206 506.293C264.074 506.48 264 506.735 264 507C264 507.265 264.074 507.52 264.206 507.707C264.339 507.895 264.518 508 264.705 508Z" fill="#CBCBCB"/>
</svg>
